# xmcd CD database file generated by OrangeCD 5.2
#
# Track frame offsets:
#	150
#	15997
#	36377
#	53852
#	72300
#	89877
#	111752
#	131557
#	156577
#
# Disc length: 2316 seconds
#
# Revision: 3
# Processed by: cddbd v1.5.1PL0 Copyright (c) Steve Scherf et al.
# Submitted via: OrangeCD 5.2
#
DISCID=7f090a09
DTITLE=David Ruffin and Eddie Kendricks - Ruffin and Kendrick
DYEAR=1987
DGENRE=R&B Male 
TTITLE0=I Couldn't Believe It
TTITLE1=Ordinary Girl
TTITLE2=One More For The Lonely Hearts Club
TTITLE3=Whatever You Got
TTITLE4=Don't Know Why You're Dreaming
TTITLE5=Family Affair
TTITLE6=One Last Kiss
TTITLE7=You Only Get What You Put Out
TTITLE8=Goodnight Pillow
EXTD=
EXTT0=
EXTT1=
EXTT2=
EXTT3=
EXTT4=
EXTT5=
EXTT6=
EXTT7=
EXTT8=
PLAYORDER=
